<svg width="73" height="58" viewBox="0 0 73 58" fill="none" xmlns="http://www.w3.org/2000/svg">
<path d="M36.9886 33.6711C36.2305 33.134 35.3244 32.8454 34.3954 32.8451C34.1351 32.8452 33.8752 32.8676 33.6187 32.9119C32.5875 33.0893 31.6498 33.6189 30.9654 34.4104C30.281 35.2018 29.8923 36.2061 29.8655 37.2521C29.8387 38.2981 30.1755 39.321 30.8186 40.1464C31.4616 40.9718 32.371 41.5487 33.3917 41.7786C34.4125 42.0086 35.4814 41.8774 36.4162 41.4074C37.351 40.9375 38.0939 40.1578 38.5183 39.2014C38.9426 38.245 39.0221 37.171 38.7431 36.1625C38.4642 35.1541 37.8441 34.2735 36.9886 33.6711Z" fill="#19213C"/>
<path d="M19.0739 42.0093L21.007 43.2705C21.2459 43.4268 21.4351 43.6482 21.5523 43.9086C21.6695 44.1689 21.7098 44.4574 21.6684 44.7399L21.3536 46.8626L29.9523 41.8527C29.1275 41.0431 28.5423 40.0216 28.2612 38.9006L19.0739 42.0093Z" fill="#19213C"/>
<path d="M7.23371 8.46701C10.3704 3.98826 10.7089 0.583713 10.0038 0.0904041C9.89587 0.0250531 9.77069 -0.00611533 9.64471 0.000993486C9.19146 0.000993486 8.44285 0.269226 7.47626 0.940083C6.01455 1.95529 4.4534 3.5951 3.07855 5.55741C-0.0581247 10.0371 -0.396649 13.4407 0.308442 13.934C1.01353 14.4273 4.09703 12.9459 7.23371 8.46701Z" fill="#19213C"/>
<path d="M43.9922 26.966L40.3644 24.5191C39.7438 25.9256 39.2551 26.6406 37.8606 28.6794L37.5608 29.1179C36.9781 29.9694 36.4803 30.6293 35.9931 31.2302C37.46 31.6174 38.7407 32.5149 39.6055 33.7614C40.0751 33.1574 40.591 32.4907 40.8242 32.16C42.6982 29.5035 43.2404 28.71 43.9922 26.966Z" fill="#19213C"/>
<path d="M71.1412 43.8533C64.3272 40.1351 52.9907 32.909 45.5334 27.9869C44.7756 29.6921 44.1416 30.6166 42.3122 33.2097C42.0192 33.6249 41.3625 34.4685 40.835 35.1465C40.7052 35.3133 40.5839 35.469 40.4779 35.6058C40.5414 35.8259 40.5932 36.0492 40.6329 36.2748C40.8721 37.6222 40.664 39.011 40.0403 40.2291C50.3313 47.7114 57.6288 53.3988 61.7328 57.1369C62.2187 57.5795 62.86 57.8118 63.5166 57.783C64.1733 57.7543 64.7918 57.4668 65.2371 56.9834C66.6315 55.4606 67.9345 53.8564 69.139 52.1794C70.2696 50.5897 71.2839 48.9204 72.174 47.1846C72.4739 46.6049 72.5336 45.9306 72.3403 45.3072C72.1471 44.6839 71.7163 44.1616 71.1412 43.8533Z" fill="#19213C"/>
<path d="M34.3974 43.6777C33.6594 43.6766 32.9273 43.5462 32.2344 43.2924L30.381 53.2215L32.2863 52.2211C32.5392 52.0889 32.8247 52.0317 33.1091 52.0564C33.3935 52.081 33.6649 52.1864 33.8913 52.3602L35.7156 53.7655L35.5435 43.573C35.1654 43.6423 34.7818 43.6773 34.3974 43.6777Z" fill="#19213C"/>
<path d="M33.3092 31.1175C33.4598 31.0915 33.6105 31.0729 33.7613 31.0578C34.5862 30.116 35.3529 29.1249 36.0572 28.0899L36.3575 27.6507C37.8369 25.4879 38.215 24.9332 38.8385 23.4608C29.4432 16.9106 20.5024 9.73158 12.0774 1.97296C12.0223 2.39341 11.9397 2.80979 11.8301 3.21943C11.3224 5.14241 10.2198 7.3766 8.72549 9.51045C7.23117 11.6443 5.50924 13.4454 3.87489 14.5799C3.47048 14.8646 3.04426 15.1169 2.60019 15.3346C10.9404 20.3787 20.2757 26.4468 29.7877 33.0054C30.7243 32.009 31.9609 31.3461 33.3092 31.1175ZM14.0794 17.7916C13.9511 17.9962 13.7468 18.1414 13.5115 18.1954C13.2761 18.2494 13.029 18.2076 12.8244 18.0793C12.2531 17.7212 11.6838 17.3659 11.1166 17.0133C10.9134 16.885 10.7692 16.6816 10.7153 16.4473C10.6615 16.2131 10.7025 15.9671 10.8293 15.7629C10.9561 15.5588 11.1585 15.4131 11.3924 15.3576C11.6262 15.302 11.8725 15.3412 12.0776 15.4666C12.6471 15.8202 13.2184 16.1769 13.7917 16.5366C13.893 16.6001 13.9809 16.6829 14.0502 16.7803C14.1195 16.8777 14.169 16.9879 14.1958 17.1044C14.2225 17.2209 14.2261 17.3416 14.2062 17.4595C14.1863 17.5775 14.1434 17.6903 14.08 17.7916H14.0794ZM28.9548 27.5072C28.82 27.7075 28.6111 27.8461 28.3742 27.8924C28.1372 27.9388 27.8915 27.8891 27.6912 27.7543C23.726 25.0869 19.8063 22.5158 16.0384 20.1127C15.9376 20.0484 15.8505 19.9648 15.782 19.8669C15.7134 19.7689 15.6649 19.6583 15.6391 19.5416C15.6132 19.4248 15.6107 19.3041 15.6315 19.1864C15.6523 19.0687 15.6962 18.9562 15.7605 18.8554C15.8248 18.7546 15.9083 18.6674 16.0063 18.5989C16.1043 18.5303 16.2148 18.4818 16.3316 18.456C16.4483 18.4302 16.569 18.4276 16.6867 18.4484C16.8045 18.4693 16.917 18.5131 17.0178 18.5774C20.7973 20.9886 24.7303 23.5669 28.7077 26.2438C28.9079 26.3786 29.0465 26.5874 29.0928 26.8243C29.1392 27.0613 29.0895 27.3069 28.9548 27.5072Z" fill="#19213C"/>
</svg>
