<svg width="172" height="172" viewBox="0 0 172 172" fill="none" xmlns="http://www.w3.org/2000/svg">
<g clip-path="url(#clip0_101_365)">
<path d="M85.9886 171.977C133.479 171.977 171.977 133.479 171.977 85.9886C171.977 38.4984 133.479 0 85.9886 0C38.4984 0 0 38.4984 0 85.9886C0 133.479 38.4984 171.977 85.9886 171.977Z" fill="#002016"/>
<path d="M49.9478 73.763C58.8103 73.763 66.0139 66.5594 66.0139 57.6969C66.0139 48.8345 58.833 41.6309 49.9478 41.6309C41.0626 41.6309 33.8818 48.8345 33.8818 57.6969C33.8818 66.5594 41.0854 73.763 49.9478 73.763ZM70.127 84.6706C68.2863 82.6254 66.832 80.2394 65.8775 77.6034C63.6051 76.7626 61.1509 76.3081 58.583 76.3081H41.2899C29.5642 76.3081 20.0881 85.8068 20.0881 97.5098V112.235C28.4507 115.667 38.7675 117.689 49.9478 117.689C50.2432 117.689 50.5387 117.689 50.8341 117.689V110.19C50.8341 98.0779 59.0148 87.8293 70.127 84.6706ZM122.029 73.763C130.892 73.763 138.095 66.5594 138.095 57.6969C138.095 48.8345 130.892 41.6309 122.029 41.6309C113.167 41.6309 105.963 48.8345 105.963 57.6969C105.963 66.5594 113.167 73.763 122.029 73.763ZM130.687 76.3081H113.394C110.826 76.3081 108.372 76.7626 106.099 77.6034C105.145 80.2394 103.691 82.6482 101.85 84.6706C112.985 87.8293 121.143 98.0779 121.143 110.19V117.689C121.438 117.689 121.734 117.689 122.006 117.689C133.187 117.689 143.504 115.667 151.866 112.235V97.5098C151.866 85.7841 142.367 76.3081 130.664 76.3081H130.687ZM71.6268 77.5352C73.172 80.603 75.649 83.1254 78.7168 84.6933C79.8984 85.3069 81.171 85.7614 82.5117 86.0568C83.6252 86.3068 84.8069 86.4431 86.0112 86.4431C87.2156 86.4431 88.3746 86.3068 89.5108 86.0568C90.8515 85.7614 92.1241 85.3069 93.3057 84.6933C96.3735 83.1254 98.8505 80.6257 100.396 77.5352C100.987 76.3535 101.441 75.0583 101.736 73.7403C101.964 72.6495 102.1 71.536 102.1 70.3771C102.1 61.5146 94.9192 54.311 86.034 54.311C77.1488 54.311 69.9679 61.5146 69.9679 70.3771C69.9679 71.536 70.0815 72.6495 70.3315 73.7403C70.6269 75.081 71.0587 76.3535 71.6722 77.5352H71.6268ZM94.6465 88.9882H77.3533C65.6276 88.9882 56.1516 98.487 56.1516 110.19V124.915C64.5141 128.347 74.8309 130.369 86.0112 130.369C97.1916 130.369 107.508 128.347 115.871 124.915V110.19C115.871 98.4643 106.372 88.9882 94.6692 88.9882H94.6465Z" fill="#D2B48C"/>
</g>
<defs>
<clipPath id="clip0_101_365">
<rect width="172" height="172" fill="white"/>
</clipPath>
</defs>
</svg>
