<svg width="58" height="58" viewBox="0 0 58 58" fill="none" xmlns="http://www.w3.org/2000/svg">
<path d="M50.75 29C50.75 26.1437 50.1874 23.3155 49.0944 20.6766C48.0013 18.0378 46.3992 15.6401 44.3796 13.6204C42.3599 11.6008 39.9622 9.99866 37.3234 8.90562C34.6845 7.81258 31.8563 7.25 29 7.25C26.1437 7.25 23.3155 7.81258 20.6766 8.90562C18.0378 9.99866 15.6401 11.6008 13.6204 13.6204C11.6008 15.6401 9.99866 18.0378 8.90562 20.6766C7.81258 23.3155 7.25 26.1437 7.25 29C7.25 31.8563 7.81258 34.6845 8.90562 37.3234C9.99866 39.9622 11.6008 42.3599 13.6204 44.3796C15.6401 46.3992 18.0378 48.0013 20.6766 49.0944C23.3155 50.1874 26.1437 50.75 29 50.75C31.8563 50.75 34.6845 50.1874 37.3234 49.0944C39.9622 48.0013 42.3599 46.3992 44.3796 44.3796C46.3992 42.3599 48.0013 39.9622 49.0944 37.3234C50.1874 34.6845 50.75 31.8563 50.75 29ZM0 29C0 21.3087 3.05535 13.9325 8.4939 8.4939C13.9325 3.05535 21.3087 0 29 0C36.6913 0 44.0675 3.05535 49.5061 8.4939C54.9447 13.9325 58 21.3087 58 29C58 36.6913 54.9447 44.0675 49.5061 49.5061C44.0675 54.9447 36.6913 58 29 58C21.3087 58 13.9325 54.9447 8.4939 49.5061C3.05535 44.0675 0 36.6913 0 29ZM29 38.0625C31.4035 38.0625 33.7086 37.1077 35.4082 35.4082C37.1077 33.7086 38.0625 31.4035 38.0625 29C38.0625 26.5965 37.1077 24.2914 35.4082 22.5918C33.7086 20.8923 31.4035 19.9375 29 19.9375C26.5965 19.9375 24.2914 20.8923 22.5918 22.5918C20.8923 24.2914 19.9375 26.5965 19.9375 29C19.9375 31.4035 20.8923 33.7086 22.5918 35.4082C24.2914 37.1077 26.5965 38.0625 29 38.0625ZM29 12.6875C33.3263 12.6875 37.4755 14.4061 40.5347 17.4653C43.5939 20.5245 45.3125 24.6737 45.3125 29C45.3125 33.3263 43.5939 37.4755 40.5347 40.5347C37.4755 43.5939 33.3263 45.3125 29 45.3125C24.6737 45.3125 20.5245 43.5939 17.4653 40.5347C14.4061 37.4755 12.6875 33.3263 12.6875 29C12.6875 24.6737 14.4061 20.5245 17.4653 17.4653C20.5245 14.4061 24.6737 12.6875 29 12.6875ZM25.375 29C25.375 28.0386 25.7569 27.1166 26.4367 26.4367C27.1166 25.7569 28.0386 25.375 29 25.375C29.9614 25.375 30.8834 25.7569 31.5633 26.4367C32.2431 27.1166 32.625 28.0386 32.625 29C32.625 29.9614 32.2431 30.8834 31.5633 31.5633C30.8834 32.2431 29.9614 32.625 29 32.625C28.0386 32.625 27.1166 32.2431 26.4367 31.5633C25.7569 30.8834 25.375 29.9614 25.375 29Z" fill="#19213C"/>
</svg>
