<svg width="172" height="172" viewBox="0 0 172 172" fill="none" xmlns="http://www.w3.org/2000/svg">
<g clip-path="url(#clip0_101_359)">
<path d="M85.9886 171.977C133.479 171.977 171.977 133.479 171.977 85.9886C171.977 38.4984 133.479 0 85.9886 0C38.4984 0 0 38.4984 0 85.9886C0 133.479 38.4984 171.977 85.9886 171.977Z" fill="#002016"/>
<path d="M86.0342 21.9289C86.0342 21.9289 85.9888 21.9289 85.9888 21.9516L79.6032 41.5399C79.6032 41.5399 79.5578 41.5854 79.5351 41.5854L58.856 41.5172C58.856 41.5172 58.8333 41.5172 58.8333 41.5627C58.8333 41.6081 58.8333 41.5854 58.856 41.6081L75.581 53.7883C75.581 53.7883 75.6038 53.8338 75.6038 53.8565L69.2182 73.4675C69.2182 73.4675 69.2182 73.4903 69.2182 73.513C69.2182 73.513 69.2182 73.513 69.2637 73.513C69.2637 73.513 69.2637 73.513 69.2864 73.513L85.9888 61.4237C85.9888 61.4237 86.0115 61.4237 86.0342 61.4237C86.0569 61.4237 86.0569 61.4237 86.0797 61.4237L102.759 73.5812C102.759 73.5812 102.759 73.5812 102.782 73.5812C102.805 73.5812 102.782 73.5812 102.805 73.5812C102.805 73.5812 102.805 73.5584 102.805 73.5357L96.4646 53.9019C96.4646 53.9019 96.4646 53.8565 96.4874 53.8338L113.19 41.7217C113.19 41.7217 113.19 41.7217 113.19 41.6763C113.19 41.6536 113.19 41.6308 113.144 41.6308H92.5106C92.5106 41.6308 92.4652 41.5854 92.4424 41.5627L86.0797 21.9516C86.0797 21.9516 86.0569 21.9289 86.0342 21.9289Z" fill="#D2B48C"/>
<path d="M119.689 69.2408C119.689 69.2408 119.689 69.2408 119.666 69.2408L86.0568 96.1237C86.0568 96.1237 86.0341 96.1237 86.0114 96.1237C85.9886 96.1237 85.9887 96.1237 85.9659 96.1237L52.3567 69.2408C52.3567 69.2408 52.3567 69.2408 52.334 69.2408C52.334 69.2408 52.3113 69.2408 52.3113 69.2863V82.5118C52.3113 82.5118 52.3113 82.5345 52.3113 82.5573L85.9886 109.508C85.9886 109.508 85.9886 109.508 86.0114 109.508L119.689 82.5573C119.689 82.5573 119.689 82.5573 119.689 82.5118V69.2863C119.689 69.2863 119.689 69.2636 119.666 69.2408H119.689Z" fill="#D2B48C"/>
<path d="M119.689 89.5109C119.689 89.5109 119.689 89.5109 119.666 89.5109L86.0568 116.394C86.0568 116.394 86.0341 116.394 86.0114 116.394C85.9886 116.394 85.9887 116.394 85.9659 116.394L52.3567 89.5109C52.3567 89.5109 52.3567 89.5109 52.334 89.5109C52.334 89.5109 52.3113 89.5336 52.3113 89.5563V102.782C52.3113 102.782 52.3113 102.805 52.3113 102.827L85.9886 129.778C85.9886 129.778 85.9886 129.778 86.0114 129.778L119.689 102.827C119.689 102.827 119.689 102.827 119.689 102.782V89.5563C119.689 89.5563 119.689 89.5336 119.666 89.5109H119.689Z" fill="#D2B48C"/>
<path d="M119.689 109.804C119.689 109.804 119.689 109.804 119.666 109.804L86.0568 136.686C86.0568 136.686 86.0341 136.686 86.0114 136.686C85.9886 136.686 85.9887 136.686 85.9659 136.686L52.3567 109.804C52.3567 109.804 52.3567 109.804 52.334 109.804C52.334 109.804 52.3113 109.826 52.3113 109.849V123.075C52.3113 123.075 52.3113 123.097 52.3113 123.12L85.9886 150.071C85.9886 150.071 85.9886 150.071 86.0114 150.071L119.689 123.12C119.689 123.12 119.689 123.12 119.689 123.075V109.849C119.689 109.849 119.689 109.826 119.666 109.804H119.689Z" fill="#D2B48C"/>
</g>
<defs>
<clipPath id="clip0_101_359">
<rect width="172" height="172" fill="white"/>
</clipPath>
</defs>
</svg>
