<svg width="60" height="58" viewBox="0 0 60 58" fill="none" xmlns="http://www.w3.org/2000/svg">
<path d="M28.3209 21.75C31.207 21.75 33.9795 22.5543 36.3656 24.0043V58H14.5493V38.2551L8.4589 48.5184C7.18629 50.6707 4.39107 51.3844 2.23216 50.1156C0.07325 48.8469 -0.642599 46.0602 0.630021 43.9078L9.28838 29.3172C12.0722 24.6273 17.1286 21.75 22.5941 21.75H28.3209ZM16.3673 9.0625C16.3673 6.65898 17.325 4.35389 19.0298 2.65434C20.7345 0.954796 23.0466 0 25.4575 0C27.8683 0 30.1804 0.954796 31.8852 2.65434C33.5899 4.35389 34.5476 6.65898 34.5476 9.0625C34.5476 11.466 33.5899 13.7711 31.8852 15.4707C30.1804 17.1702 27.8683 18.125 25.4575 18.125C23.0466 18.125 20.7345 17.1702 19.0298 15.4707C17.325 13.7711 16.3673 11.466 16.3673 9.0625ZM49.0918 0C50.0917 0 50.9099 0.815625 50.9099 1.8125V14.9871C52.0007 15.6102 52.7279 16.7883 52.7279 18.125V30.5066L54.5459 29.9062V23.5625C54.5459 22.5656 55.364 21.75 56.3639 21.75H58.182C59.1819 21.75 60 22.5656 60 23.5625V33.1348C60 33.9164 59.5 34.6074 58.7615 34.8566L52.7279 36.8504V39.875H58.182C59.1819 39.875 60 40.6906 60 41.6875V43.5C60 44.4969 59.1819 45.3125 58.182 45.3125H53.1824L55.7958 55.7457C56.0799 56.8898 55.2163 58 54.0346 58H47.2738C46.2739 58 45.4558 57.1844 45.4558 56.1875V45.3125H43.6377C41.6266 45.3125 40.0017 43.6926 40.0017 41.6875V25.375C40.0017 23.3699 41.6266 21.75 43.6377 21.75V18.125C43.6377 16.7883 44.365 15.6102 45.4558 14.9871V3.625C44.4559 3.625 43.6377 2.80938 43.6377 1.8125C43.6377 0.815625 44.4559 0 45.4558 0H47.2738H49.0918Z" fill="#19213C"/>
</svg>
