<svg width="172" height="172" viewBox="0 0 172 172" fill="none" xmlns="http://www.w3.org/2000/svg">
<g clip-path="url(#clip0_101_405)">
<path d="M85.9886 171.977C133.479 171.977 171.977 133.479 171.977 85.9886C171.977 38.4984 133.479 0 85.9886 0C38.4984 0 0 38.4984 0 85.9886C0 133.479 38.4984 171.977 85.9886 171.977Z" fill="#002016"/>
<path d="M44.7668 128.097L31.7913 68.2183H46.3802L50.3115 91.4879C51.5841 99.1687 52.7203 107.509 53.3339 114.439H53.7202C54.3337 107.304 55.8108 99.2596 57.0379 91.6697L60.7874 68.2183H74.9901L61.9009 128.097H44.7441H44.7668Z" fill="#D2B48C"/>
<path d="M93.4877 68.2183V128.097H79.7395V68.2183H93.4877Z" fill="#D2B48C"/>
<path d="M102.691 68.2183H122.347C132.732 68.2183 140.209 73.9675 140.209 86.3749C140.209 98.7824 133.505 104.736 121.734 104.736H116.371V128.119H102.714V68.241L102.691 68.2183ZM116.348 94.1921H119.916C124.665 94.1921 126.461 91.8742 126.461 86.2386C126.461 80.603 124.074 78.5351 120.211 78.5351H116.348V94.1694V94.1921Z" fill="#D2B48C"/>
<path d="M86.2159 22.4289L89.4655 32.4275C89.4655 32.4275 89.5791 32.5866 89.6927 32.5866H100.214C100.441 32.5866 100.532 32.882 100.35 33.0184L91.8515 39.1994C91.8515 39.1994 91.7379 39.3584 91.7606 39.4721L95.0102 49.4707C95.0784 49.698 94.8284 49.8798 94.6466 49.7434L86.1478 43.5624C86.1478 43.5624 85.9432 43.4943 85.8751 43.5624L77.3762 49.7434C77.1944 49.8798 76.9444 49.698 77.0126 49.4707L80.2622 39.4721C80.2622 39.4721 80.2622 39.2675 80.1713 39.1994L71.6724 33.0184C71.4906 32.882 71.5815 32.5866 71.8087 32.5866H82.3301C82.3301 32.5866 82.5346 32.5184 82.5573 32.4275L85.8069 22.4289C85.8751 22.2016 86.1932 22.2016 86.2614 22.4289H86.2159Z" fill="#D2B48C"/>
<path d="M58.2878 39.9493L60.6512 47.1983C60.6512 47.1983 60.7421 47.3119 60.8102 47.3119H68.4229C68.5819 47.3119 68.6501 47.5164 68.5138 47.6301L62.3555 52.1067C62.3555 52.1067 62.2646 52.2204 62.2873 52.3113L64.6506 59.5603C64.6961 59.7194 64.5143 59.8557 64.3779 59.7648L58.2197 55.2881C58.2197 55.2881 58.0833 55.2427 58.0151 55.2881L51.8569 59.7648C51.7205 59.8557 51.5387 59.7194 51.5842 59.5603L53.9475 52.3113C53.9475 52.3113 53.9475 52.1522 53.8793 52.1067L47.7211 47.6301C47.5847 47.5392 47.6529 47.3119 47.812 47.3119H55.4246C55.4246 47.3119 55.5609 47.2665 55.5836 47.1983L57.947 39.9493C57.9924 39.7902 58.2197 39.7902 58.2878 39.9493Z" fill="#D2B48C"/>
<path d="M114.03 39.9493L116.394 47.1983C116.394 47.1983 116.484 47.3119 116.553 47.3119H124.165C124.324 47.3119 124.393 47.5164 124.256 47.6301L118.098 52.1067C118.098 52.1067 118.007 52.2204 118.03 52.3113L120.393 59.5603C120.439 59.7194 120.257 59.8557 120.12 59.7648L113.962 55.2881C113.962 55.2881 113.826 55.2427 113.758 55.2881L107.599 59.7648C107.463 59.8557 107.281 59.7194 107.327 59.5603L109.69 52.3113C109.69 52.3113 109.69 52.1522 109.622 52.1067L103.463 47.6301C103.327 47.5392 103.395 47.3119 103.554 47.3119H111.167C111.167 47.3119 111.303 47.2665 111.326 47.1983L113.689 39.9493C113.735 39.7902 113.962 39.7902 114.03 39.9493Z" fill="#D2B48C"/>
</g>
<defs>
<clipPath id="clip0_101_405">
<rect width="172" height="172" fill="white"/>
</clipPath>
</defs>
</svg>
